<svg data-v-423bf9ae="" xmlns="http://www.w3.org/2000/svg" viewBox="0 0 302.63264903958674 60" class="font"><!----><!----><!----><g data-v-423bf9ae="" id="fe02c594-782e-466d-95a9-63e6f7e61aa0" fill="black" transform="matrix(6.1224488604322,0,0,6.1224488604322,0.0000016215640528116637,-4.285714427340487)"><path d="M3.43 0.70L4.42 0.70L2.70 7.13L2.70 10.50L1.72 10.50L1.72 7.13L0 0.70L0.99 0.70L2.21 5.17L3.43 0.70ZM6.20 0.70L8.26 0.70L8.26 0.70Q8.67 0.77 8.93 1.08L8.93 1.08L8.93 1.08Q9.20 1.39 9.20 1.81L9.20 1.81L9.20 9.39L9.20 9.39Q9.20 9.81 8.93 10.12L8.93 10.12L8.93 10.12Q8.67 10.43 8.26 10.50L8.26 10.50L6.20 10.50L6.20 10.50Q5.80 10.43 5.53 10.12L5.53 10.12L5.53 10.12Q5.26 9.81 5.26 9.39L5.26 9.39L5.26 1.81L5.26 1.81Q5.26 1.39 5.53 1.08L5.53 1.08L5.53 1.08Q5.80 0.77 6.20 0.70L6.20 0.70ZM8.22 9.39L8.22 1.81L8.22 1.81Q8.22 1.67 8.09 1.67L8.09 1.67L6.38 1.67L6.38 1.67Q6.24 1.67 6.24 1.81L6.24 1.81L6.24 9.39L6.24 9.39Q6.24 9.53 6.38 9.53L6.38 9.53L8.09 9.53L8.09 9.53Q8.22 9.53 8.22 9.39L8.22 9.39ZM13.02 0.71L14 0.71L14 9.39L14 9.39Q14 9.81 13.74 10.12L13.74 10.12L13.74 10.12Q13.48 10.43 13.08 10.50L13.08 10.50L11.05 10.50L11.05 10.50Q10.64 10.43 10.37 10.12L10.37 10.12L10.37 10.12Q10.11 9.81 10.11 9.39L10.11 9.39L10.11 0.71L11.09 0.71L11.09 9.39L11.09 9.39Q11.09 9.53 11.23 9.53L11.23 9.53L12.89 9.53L12.89 9.53Q13.02 9.53 13.02 9.39L13.02 9.39L13.02 0.71ZM17.85 0.70L18.83 0.70L18.83 10.50L17.85 10.50L17.85 10.50L17.82 10.50L15.89 4.03L15.89 10.50L14.91 10.50L14.91 0.70L15.89 0.70L15.89 0.71L17.85 7.18L17.85 0.70ZM20.72 0.70L20.72 10.50L19.74 10.50L19.74 0.70L20.72 0.70ZM25.56 0.70L23.76 4.44L25.56 10.50L24.51 10.50L23.14 5.73L22.61 6.82L22.61 10.50L21.63 10.50L21.63 4.62L21.63 4.61L22.61 4.61L21.63 1.68L21.63 0.70L22.60 0.70L22.61 0.70L22.61 1.68L22.61 4.61L22.62 4.61L24.49 0.70L25.56 0.70ZM35.39 0.70L35.39 0.70L34.17 10.50L32.83 10.50L32.09 6.22L31.35 10.50L30.00 10.50L28.77 0.70L29.76 0.70L30.67 8.54L31.71 3.12L32.58 3.12L33.50 8.54L34.40 0.70L35.39 0.70ZM39.70 1.68L37.16 1.68L37.16 4.62L39.20 4.62L39.20 5.60L37.16 5.60L37.16 9.52L39.70 9.52L39.70 10.50L36.18 10.50L36.18 4.62L37.16 4.62L36.18 1.68L36.18 0.70L39.70 0.70L39.70 1.68ZM43.96 10.50L42.71 2.67L42.00 7.20L42.71 7.20L42.71 8.18L41.85 8.18L41.47 10.50L40.47 10.50L40.85 8.18L40.47 8.18L40.47 7.20L41.01 7.20L42.04 0.70L43.39 0.70L44.95 10.50L43.96 10.50ZM45.50 10.50L45.50 4.62L46.48 4.62L46.48 10.50L45.50 10.50ZM45.50 0.70L48.33 0.70L48.33 0.70Q48.78 0.70 49.11 1.03L49.11 1.03L49.11 1.03Q49.43 1.36 49.43 1.82L49.43 1.82L49.43 4.48L49.43 4.48Q49.43 4.94 49.11 5.27L49.11 5.27L49.11 5.27Q48.78 5.60 48.33 5.60L48.33 5.60L47.98 5.60L49.43 10.50L48.38 10.50L46.69 4.62L48.33 4.62L48.33 4.62Q48.45 4.62 48.45 4.48L48.45 4.48L48.45 1.82L48.45 1.82Q48.45 1.68 48.33 1.68L48.33 1.68L46.48 1.68L46.48 4.62L45.50 1.68L45.50 0.70Z"></path></g><!----><!----></svg>